<svg width="45" height="43" viewBox="0 0 45 43" fill="none" xmlns="http://www.w3.org/2000/svg">
<g clip-path="url(#clip0_215_30)">
<path fill-rule="evenodd" clip-rule="evenodd" d="M22.5 0.530029C10.3484 0.530029 0.5 10.1546 0.5 22.03C0.5 31.5253 6.80438 39.5836 15.5442 42.434C16.6408 42.6339 17.0507 41.9629 17.0507 41.3977C17.0507 40.8795 17.0266 39.1948 17.0266 37.3924C10.9027 38.6883 9.61281 34.8595 9.61281 34.8595C8.6125 32.3735 7.16531 31.7143 7.16531 31.7143C5.16383 30.3831 7.30969 30.4066 7.30969 30.4066C9.5157 30.5595 10.6853 32.6213 10.6853 32.6213C12.6498 35.9084 15.833 34.9535 17.0868 34.4118C17.2793 33.0219 17.8585 32.0796 18.485 31.5371C13.6029 30.9954 8.45523 29.1452 8.45523 20.9105C8.45523 18.5665 9.31117 16.6458 10.7214 15.1383C10.492 14.5966 9.74516 12.4054 10.938 9.44833C10.938 9.44833 12.7822 8.87136 16.9897 11.6512C18.7497 11.1801 20.63 10.9323 22.4991 10.9323C24.3674 10.9441 26.2486 11.1801 28.0086 11.6512C32.2041 8.87136 34.0483 9.44833 34.0483 9.44833C35.242 12.4054 34.4943 14.5966 34.2648 15.1383C35.6751 16.6466 36.531 18.5665 36.531 20.9105C36.531 29.1687 31.3834 30.9828 26.4892 31.5135C27.273 32.1854 27.9837 33.4931 27.9837 35.4952C27.9837 38.37 27.9596 40.6905 27.9596 41.3977C27.9596 41.9746 28.3575 42.6348 29.4661 42.434C38.2077 39.5836 44.5 31.5371 44.5 22.03C44.5 10.1546 34.6516 0.530029 22.5 0.530029Z" fill="#E9E9E9"/>
<path d="M8.82989 31.396C8.78176 31.5018 8.61332 31.5371 8.45606 31.4666C8.29965 31.396 8.20254 31.2549 8.26356 31.1483C8.31168 31.0424 8.48012 31.0072 8.63739 31.0777C8.79379 31.1483 8.89004 31.2902 8.82989 31.396Z" fill="#E9E9E9"/>
<path d="M9.7219 32.3736C9.61362 32.4677 9.40823 32.4206 9.27589 32.2795C9.13151 32.1267 9.10745 31.926 9.21573 31.8319C9.32401 31.7378 9.51737 31.7849 9.66175 31.926C9.80612 32.0788 9.83018 32.2795 9.7219 32.3736Z" fill="#E9E9E9"/>
<path d="M10.59 33.6106C10.4576 33.7047 10.2402 33.6224 10.0958 33.4225C9.9635 33.2344 9.9635 32.9984 10.0958 32.9043C10.2282 32.8103 10.4456 32.8926 10.59 33.0807C10.7344 33.2806 10.7344 33.5166 10.59 33.6106Z" fill="#E9E9E9"/>
<path d="M11.7836 34.8006C11.6633 34.93 11.4098 34.8947 11.2173 34.7183C11.0248 34.542 10.9758 34.2942 11.097 34.1649C11.2182 34.0355 11.4828 34.0708 11.6633 34.2472C11.8558 34.4353 11.9039 34.6822 11.7836 34.8006Z" fill="#E9E9E9"/>
<path d="M13.4224 35.4953C13.3743 35.6599 13.1208 35.743 12.8682 35.6717C12.6146 35.6011 12.4582 35.4004 12.5064 35.2358C12.5545 35.0712 12.808 34.988 13.0607 35.0594C13.3021 35.13 13.4706 35.3307 13.4224 35.4953Z" fill="#E9E9E9"/>
<path d="M15.2185 35.6254C15.2306 35.8018 15.014 35.9555 14.7485 35.9555C14.4829 35.9672 14.2784 35.8144 14.2664 35.6372C14.2664 35.4608 14.4709 35.3071 14.7364 35.3071C15.002 35.3071 15.2185 35.4482 15.2185 35.6254Z" fill="#E9E9E9"/>
<path d="M16.8943 35.354C16.9304 35.5304 16.7499 35.7076 16.4844 35.7547C16.2308 35.8017 15.9902 35.6959 15.9662 35.5187C15.9301 35.3423 16.1226 35.1651 16.3761 35.118C16.6296 35.071 16.8582 35.1777 16.8943 35.354Z" fill="#E9E9E9"/>
</g>
<defs>
<clipPath id="clip0_215_30">
<rect width="44" height="43" fill="white" transform="translate(0.5)"/>
</clipPath>
</defs>
</svg>
