<svg width="43" height="37" viewBox="0 0 43 37" fill="none" xmlns="http://www.w3.org/2000/svg">
<path d="M3.36453 36.9999H10.0427V18.4627L0.5 10.2737V33.7262C0.5 35.5412 1.78543 36.9999 3.36453 36.9999Z" fill="#4285F4"/>
<path d="M32.9573 36.9999H39.6354C41.2145 36.9999 42.5 35.5309 42.5 33.7262V10.2737L32.9573 18.4524V36.9999Z" fill="#34A853"/>
<path d="M32.9573 4.27369V18.4524L42.5 10.2737V5.90588C42.5 1.86432 38.4599 -0.449432 35.629 1.97963L32.9573 4.27369Z" fill="#FBBC04"/>
<path d="M10.0427 18.4627V4.27368L21.5 14.0949L32.9573 4.27368V18.4627L21.5 28.2737L10.0427 18.4627Z" fill="#EA4335"/>
<path d="M0.5 5.91516V10.283L10.0427 18.4617V4.2736L7.37094 1.98891C4.54004 -0.440154 0.5 1.8736 0.5 5.91516Z" fill="#C5221F"/>
</svg>
